<svg width="129" height="115" viewBox="0 0 129 115" fill="none" xmlns="http://www.w3.org/2000/svg">
<path d="M1.5 3C2.32843 3 3 2.32843 3 1.5C3 0.671573 2.32843 0 1.5 0C0.671573 0 0 0.671573 0 1.5C0 2.32843 0.671573 3 1.5 3Z" fill="#1F1F1F"/>
<path d="M43.5 3C44.3284 3 45 2.32843 45 1.5C45 0.671573 44.3284 0 43.5 0C42.6716 0 42 0.671573 42 1.5C42 2.32843 42.6716 3 43.5 3Z" fill="#1F1F1F"/>
<path d="M85.5 3C86.3284 3 87 2.32843 87 1.5C87 0.671573 86.3284 0 85.5 0C84.6716 0 84 0.671573 84 1.5C84 2.32843 84.6716 3 85.5 3Z" fill="#1F1F1F"/>
<path d="M127.5 3C128.328 3 129 2.32843 129 1.5C129 0.671573 128.328 0 127.5 0C126.672 0 126 0.671573 126 1.5C126 2.32843 126.672 3 127.5 3Z" fill="#1F1F1F"/>
<path d="M1.5 31C2.32843 31 3 30.3284 3 29.5C3 28.6716 2.32843 28 1.5 28C0.671573 28 0 28.6716 0 29.5C0 30.3284 0.671573 31 1.5 31Z" fill="#1F1F1F"/>
<path d="M43.5 31C44.3284 31 45 30.3284 45 29.5C45 28.6716 44.3284 28 43.5 28C42.6716 28 42 28.6716 42 29.5C42 30.3284 42.6716 31 43.5 31Z" fill="#1F1F1F"/>
<path d="M85.5 31C86.3284 31 87 30.3284 87 29.5C87 28.6716 86.3284 28 85.5 28C84.6716 28 84 28.6716 84 29.5C84 30.3284 84.6716 31 85.5 31Z" fill="#1F1F1F"/>
<path d="M127.5 31C128.328 31 129 30.3284 129 29.5C129 28.6716 128.328 28 127.5 28C126.672 28 126 28.6716 126 29.5C126 30.3284 126.672 31 127.5 31Z" fill="#1F1F1F"/>
<path d="M1.5 59C2.32843 59 3 58.3284 3 57.5C3 56.6716 2.32843 56 1.5 56C0.671573 56 0 56.6716 0 57.5C0 58.3284 0.671573 59 1.5 59Z" fill="#1F1F1F"/>
<path d="M43.5 59C44.3284 59 45 58.3284 45 57.5C45 56.6716 44.3284 56 43.5 56C42.6716 56 42 56.6716 42 57.5C42 58.3284 42.6716 59 43.5 59Z" fill="#1F1F1F"/>
<path d="M85.5 59C86.3284 59 87 58.3284 87 57.5C87 56.6716 86.3284 56 85.5 56C84.6716 56 84 56.6716 84 57.5C84 58.3284 84.6716 59 85.5 59Z" fill="#1F1F1F"/>
<path d="M127.5 59C128.328 59 129 58.3284 129 57.5C129 56.6716 128.328 56 127.5 56C126.672 56 126 56.6716 126 57.5C126 58.3284 126.672 59 127.5 59Z" fill="#1F1F1F"/>
<path d="M1.5 87C2.32843 87 3 86.3284 3 85.5C3 84.6716 2.32843 84 1.5 84C0.671573 84 0 84.6716 0 85.5C0 86.3284 0.671573 87 1.5 87Z" fill="#1F1F1F"/>
<path d="M43.5 87C44.3284 87 45 86.3284 45 85.5C45 84.6716 44.3284 84 43.5 84C42.6716 84 42 84.6716 42 85.5C42 86.3284 42.6716 87 43.5 87Z" fill="#1F1F1F"/>
<path d="M85.5 87C86.3284 87 87 86.3284 87 85.5C87 84.6716 86.3284 84 85.5 84C84.6716 84 84 84.6716 84 85.5C84 86.3284 84.6716 87 85.5 87Z" fill="#1F1F1F"/>
<path d="M127.5 87C128.328 87 129 86.3284 129 85.5C129 84.6716 128.328 84 127.5 84C126.672 84 126 84.6716 126 85.5C126 86.3284 126.672 87 127.5 87Z" fill="#1F1F1F"/>
<path d="M1.5 115C2.32843 115 3 114.328 3 113.5C3 112.672 2.32843 112 1.5 112C0.671573 112 0 112.672 0 113.5C0 114.328 0.671573 115 1.5 115Z" fill="#1F1F1F"/>
<path d="M43.5 115C44.3284 115 45 114.328 45 113.5C45 112.672 44.3284 112 43.5 112C42.6716 112 42 112.672 42 113.5C42 114.328 42.6716 115 43.5 115Z" fill="#1F1F1F"/>
<path d="M85.5 115C86.3284 115 87 114.328 87 113.5C87 112.672 86.3284 112 85.5 112C84.6716 112 84 112.672 84 113.5C84 114.328 84.6716 115 85.5 115Z" fill="#1F1F1F"/>
<path d="M127.5 115C128.328 115 129 114.328 129 113.5C129 112.672 128.328 112 127.5 112C126.672 112 126 112.672 126 113.5C126 114.328 126.672 115 127.5 115Z" fill="#1F1F1F"/>
</svg>
