<svg width="46" height="46" viewBox="0 0 46 46" fill="none" xmlns="http://www.w3.org/2000/svg">
<circle cx="23" cy="23" r="22.25" fill="white" stroke="white" stroke-width="1.5"/>
<circle cx="23" cy="23" r="19.5" fill="#0376C4" stroke="#0376C4"/>
<path d="M33.8538 22.0527C33.6483 21.7716 28.7526 15.1703 22.4999 15.1703C16.2472 15.1703 11.3512 21.7716 11.146 22.0524C10.9513 22.3191 10.9513 22.6807 11.146 22.9474C11.3512 23.2285 16.2472 29.8297 22.4999 29.8297C28.7526 29.8297 33.6483 23.2284 33.8538 22.9476C34.0487 22.681 34.0487 22.3191 33.8538 22.0527ZM22.4999 28.3132C17.8941 28.3132 13.905 23.9318 12.7241 22.4995C13.9034 21.0659 17.8842 16.6868 22.4999 16.6868C27.1055 16.6868 31.0943 21.0674 32.2757 22.5005C31.0963 23.9341 27.1156 28.3132 22.4999 28.3132Z" fill="white"/>
<path d="M22.4999 17.9506C19.9914 17.9506 17.9504 19.9915 17.9504 22.5C17.9504 25.0086 19.9914 27.0495 22.4999 27.0495C25.0084 27.0495 27.0494 25.0086 27.0494 22.5C27.0494 19.9915 25.0084 17.9506 22.4999 17.9506ZM22.4999 25.533C20.8275 25.533 19.467 24.1724 19.467 22.5C19.467 20.8276 20.8275 19.4671 22.4999 19.4671C24.1723 19.4671 25.5329 20.8276 25.5329 22.5C25.5329 24.1724 24.1724 25.533 22.4999 25.533Z" fill="white"/>
</svg>
