<svg width="239" height="85" viewBox="0 0 239 85" fill="none" xmlns="http://www.w3.org/2000/svg">
<g clip-path="url(#clip0)">
<path d="M73.821 31.8326C66.4338 25.1401 57.4145 20.5926 46.5914 17.6754C45.8183 16.3884 47.1927 14.2433 46.5914 12.9563C46.3337 12.3557 45.5606 12.1841 44.9593 12.4415C43.3273 13.2995 41.867 15.5304 40.7504 17.0748C27.1785 17.418 18.6746 23.1667 12.8336 31.4036C9.91307 35.5221 7.76563 40.6702 7.16434 46.8479C6.47716 53.283 8.02332 59.7181 10.3426 64.6088C14.7233 73.8753 23.2272 80.8252 34.3939 82.7987C47.7081 85.1153 58.1017 79.4524 64.544 72.5025C64.7158 72.2451 64.7158 71.9877 64.4581 71.7303C63.771 71.1297 62.6543 71.2155 61.9671 71.8161C55.7825 77.8222 46.7632 82.6271 34.8234 80.482C24.9452 78.8518 16.699 72.4167 12.5759 63.7507C10.3426 59.1175 9.05409 53.3688 9.56948 47.6201C9.99897 41.8714 11.8887 37.0665 14.6374 33.1196C19.9631 25.3117 29.0683 19.0482 42.2106 19.563C42.6401 18.1044 43.4991 16.4742 44.3581 15.7878C44.2722 17.0748 44.5299 18.1044 44.7017 19.2198C54.8376 22.1371 64.0286 25.9123 71.0723 31.9184C71.8453 32.6048 73.821 33.9777 73.7351 34.8357C73.6492 35.5221 72.2748 36.1227 71.8453 36.8091C70.9864 38.0961 71.1581 39.5548 69.8697 39.898C69.0107 40.1554 67.4646 39.6406 66.1761 39.3831C62.3966 38.5251 59.3043 36.9807 55.4389 36.7233C51.7453 36.4659 49.5978 38.0103 47.4504 39.1257C45.9901 39.898 44.5299 40.4986 42.8119 40.756C39.1183 41.3566 35.3388 40.1554 33.1914 38.1819C32.7619 37.7529 31.7311 35.4363 30.7862 36.2943C30.3567 36.7233 31.2157 38.0103 31.4734 38.4393C32.2465 39.5548 32.5042 39.8122 33.1055 40.327C35.167 42.043 39.6337 43.6732 43.8427 42.901C47.4504 42.2146 50.5427 39.8122 54.3222 39.4689C57.5004 39.2115 60.6786 39.9838 63.0838 40.5844C65.403 41.185 68.8389 42.6436 71.2441 41.6998C72.6184 41.185 72.8761 39.7264 73.821 38.3535C74.5941 37.3239 75.8825 36.6375 75.9684 35.3505C76.2261 33.9777 74.8518 32.7764 73.821 31.8326Z" fill="white" stroke="white" stroke-miterlimit="10"/>
<path d="M99.3 29.9257V35.9257H107.7V40.5257H99.3V47.8257H108V52.4257H94V25.3257H108V29.9257H99.3Z" fill="white"/>
<path d="M128.1 51.4255C128.1 52.9255 128 54.3255 127.7 55.6255C127.4 56.9255 126.9 58.0255 126.3 58.9255C125.6 59.8255 124.8 60.6255 123.7 61.1255C122.6 61.6255 121.2 61.9255 119.6 61.9255C118.5 61.9255 117.5 61.7255 116.4 61.4255C115.4 61.1255 114.4 60.6255 113.6 60.0255C112.8 59.4255 112.1 58.6255 111.6 57.7255C111.1 56.8255 110.8 55.7255 110.7 54.6255H116C116.1 55.5255 116.5 56.3255 117.1 56.9255C117.7 57.5255 118.5 57.7255 119.5 57.7255C120.3 57.7255 121 57.5255 121.5 57.2255C122 56.9255 122.4 56.4255 122.6 55.9255C122.8 55.4255 123 54.8255 123 54.2255C123 53.6255 123.1 52.8255 123.1 52.0255V50.8255H123C122.5 51.5255 121.8 52.1255 120.9 52.5255C120 52.9255 119.1 53.1255 118.2 53.1255C117 53.1255 115.8 52.8255 114.8 52.3255C113.8 51.8255 113 51.1255 112.3 50.2255C111.6 49.3255 111.1 48.3255 110.8 47.2255C110.5 46.1255 110.3 44.9255 110.3 43.7255C110.3 42.5255 110.5 41.3255 110.8 40.1255C111.1 38.9255 111.7 37.9255 112.4 37.0255C113.1 36.1255 114 35.4255 115 34.9255C116 34.4255 117.2 34.1255 118.4 34.1255C119.3 34.1255 120.1 34.3255 121 34.7255C121.8 35.1255 122.5 35.7255 123 36.4255H123.1V34.7255H128.1V51.4255ZM122.5 47.0255C123.3 46.0255 123.7 44.9255 123.7 43.6255C123.7 42.3255 123.3 41.2255 122.5 40.2255C121.7 39.2255 120.7 38.7255 119.5 38.7255C118.3 38.7255 117.3 39.2255 116.5 40.2255C115.7 41.2255 115.3 42.4255 115.3 43.6255C115.3 44.9255 115.7 46.0255 116.5 47.0255C117.3 48.0255 118.3 48.5255 119.5 48.5255C120.7 48.5255 121.7 48.0255 122.5 47.0255Z" fill="white"/>
<path d="M136.6 34.8257V44.4257C136.6 45.0257 136.6 45.5257 136.7 46.0257C136.8 46.5257 136.9 46.9257 137.1 47.4257C137.3 47.8257 137.6 48.2257 138 48.4257C138.4 48.7257 138.9 48.8257 139.5 48.8257C140.1 48.8257 140.6 48.7257 141 48.4257C141.4 48.1257 141.7 47.8257 141.9 47.4257C142.1 47.0257 142.2 46.5257 142.3 46.0257C142.4 45.5257 142.4 45.0257 142.4 44.4257V34.8257H147.4V45.2257C147.4 50.4257 144.8 53.0257 139.5 53.0257C134.2 53.0257 131.6 50.4257 131.6 45.2257V34.8257H136.6Z" fill="white"/>
<path d="M155.8 25.2257C156.4 25.8257 156.7 26.5257 156.7 27.3257C156.7 28.1257 156.4 28.8257 155.8 29.4257C155.2 30.0257 154.5 30.3257 153.7 30.3257C152.9 30.3257 152.2 30.0257 151.6 29.4257C151 28.8257 150.7 28.2257 150.7 27.3257C150.7 26.5257 151 25.8257 151.6 25.2257C152.2 24.6257 152.9 24.3257 153.7 24.3257C154.5 24.4257 155.3 24.7257 155.8 25.2257ZM156.3 52.4257H151.3V34.8257H156.3V52.4257Z" fill="white"/>
<path d="M169 52.4257H163.7V29.9257H158.2V25.3257H174.4V29.9257H168.9V52.4257H169Z" fill="white"/>
<path d="M178.5 36.6256C179.6 35.0256 181.1 34.2256 183 34.2256C183.6 34.2256 184.3 34.3256 185.1 34.6256L184.5 39.3256C183.9 38.9256 183.2 38.7256 182.4 38.7256C181.6 38.7256 180.9 38.9256 180.4 39.2256C179.9 39.5256 179.5 40.0256 179.2 40.5256C178.9 41.1256 178.8 41.7256 178.7 42.3256C178.6 42.9256 178.6 43.7256 178.6 44.5256V52.5256H173.6V34.8256H178.6V36.6256H178.5Z" fill="white"/>
<path d="M198.5 34.9256C199.6 35.4256 200.6 36.0256 201.5 36.9256C202.3 37.8256 203 38.8256 203.4 39.9256C203.8 41.1256 204.1 42.3256 204.1 43.7256C204.1 45.1256 203.9 46.3256 203.4 47.5256C203 48.6256 202.3 49.6256 201.5 50.5256C200.7 51.4256 199.7 52.0256 198.5 52.5256C197.3 53.0256 196.1 53.2256 194.7 53.2256C193.3 53.2256 192.1 53.0256 190.9 52.5256C189.8 52.0256 188.8 51.4256 187.9 50.5256C187.1 49.6256 186.4 48.7256 186 47.5256C185.6 46.4256 185.3 45.1256 185.3 43.7256C185.3 42.3256 185.5 41.1256 186 39.9256C186.4 38.7256 187.1 37.7256 187.9 36.9256C188.7 36.0256 189.7 35.4256 190.9 34.9256C192 34.4256 193.3 34.2256 194.7 34.2256C196.1 34.2256 197.3 34.4256 198.5 34.9256ZM191.7 40.2256C190.9 41.2256 190.5 42.4256 190.5 43.7256C190.5 45.0256 190.9 46.1256 191.7 47.1256C192.5 48.1256 193.5 48.6256 194.7 48.6256C195.9 48.6256 196.9 48.1256 197.7 47.1256C198.5 46.1256 198.9 45.0256 198.9 43.7256C198.9 42.4256 198.5 41.3256 197.7 40.2256C196.9 39.2256 195.9 38.7256 194.7 38.7256C193.5 38.6256 192.5 39.2256 191.7 40.2256Z" fill="white"/>
<path d="M211.4 36.4256C212 35.7256 212.6 35.1256 213.4 34.7256C214.2 34.3256 215.1 34.2256 216 34.2256C217.2 34.2256 218.1 34.4256 218.9 34.8256C219.7 35.2256 220.3 35.7256 220.8 36.4256C221.3 37.1256 221.6 37.9256 221.8 38.8256C222 39.7256 222.1 40.7256 222.1 41.8256V52.6256H217.1V43.2256C217.1 42.4256 217.1 41.8256 217 41.2256C217 40.7256 216.8 40.2256 216.7 39.7256C216.6 39.2256 216.3 38.9256 215.9 38.7256C215.5 38.5256 215 38.3256 214.4 38.3256C213.7 38.3256 213.1 38.5256 212.7 38.8256C212.3 39.1256 212 39.6256 211.8 40.1256C211.6 40.6256 211.5 41.2256 211.4 41.8256C211.4 42.4256 211.3 43.0256 211.3 43.7256V52.4256H206.3V34.8256H211.3V36.4256H211.4Z" fill="white"/>
<path d="M94.3 71.1257H99.1001V67.3257H100.1V76.6257H99.1001V72.0257H94.3V76.6257H93.3V67.3257H94.3V71.1257Z" fill="white"/>
<path d="M102.8 67.9258C103.2 67.9258 103.5 68.2258 103.5 68.6258C103.5 69.0258 103.2 69.3258 102.8 69.3258C102.4 69.3258 102.1 69.0258 102.1 68.6258C102.1 68.2258 102.4 67.9258 102.8 67.9258ZM103.3 70.8258V76.6258H102.3V70.8258H103.3Z" fill="white"/>
<path d="M109.7 70.8256H110.7V76.5256C110.7 77.1256 110.7 78.0256 110.1 78.8256C109.7 79.4256 108.9 79.9256 107.8 79.9256C106.8 79.9256 106.1 79.5256 105.7 79.1256C105.3 78.7256 104.9 78.1256 104.9 77.2256H105.9C105.9 77.7256 106.1 78.1256 106.3 78.4256C106.7 78.9256 107.3 79.0256 107.7 79.0256C108.4 79.0256 108.9 78.7256 109.2 78.2256C109.5 77.7256 109.5 77.2256 109.5 76.7256V75.9256C109.2 76.3256 108.5 76.9256 107.5 76.9256C106.6 76.9256 106 76.6256 105.5 76.1256C105.1 75.7256 104.7 75.0256 104.7 73.8256C104.7 72.7256 105.1 72.0256 105.5 71.5256C106 71.0256 106.7 70.7256 107.5 70.7256C108.4 70.7256 109 71.1256 109.5 71.7256V70.8256H109.7ZM106.5 72.1256C106 72.6256 105.9 73.2256 105.9 73.7256C105.9 74.2256 106 74.9256 106.6 75.4256C106.9 75.7256 107.3 75.9256 107.8 75.9256C108.3 75.9256 108.8 75.7256 109.1 75.4256C109.5 75.0256 109.8 74.4256 109.8 73.7256C109.8 73.0256 109.5 72.4256 109.2 72.1256C108.9 71.8256 108.4 71.6256 107.9 71.6256C107.2 71.6256 106.8 71.8256 106.5 72.1256Z" fill="white"/>
<path d="M112.6 66.4258H113.6V71.5258C113.8 71.3258 114.3 70.7258 115.3 70.7258C116 70.7258 116.6 71.0258 117 71.5258C117.3 71.9258 117.3 72.4258 117.3 73.1258V76.7258H116.3V73.1258C116.3 72.8258 116.3 72.3258 116 72.0258C115.8 71.7258 115.5 71.6258 115 71.6258C114.6 71.6258 114.3 71.7258 114 72.0258C113.6 72.5258 113.6 73.1258 113.6 73.6258V76.6258H112.6V66.4258Z" fill="white"/>
<path d="M127.5 68.3258H123.7V71.1258H127.4V72.1258H123.7V75.7258H127.5V76.7258H122.7V67.4258H127.5V68.3258Z" fill="white"/>
<path d="M129.2 70.8256H130.2V71.5256C130.4 71.3256 130.9 70.7256 131.9 70.7256C132.6 70.7256 133.2 71.0256 133.6 71.5256C133.9 71.9256 133.9 72.4256 133.9 73.1256V76.7256H132.9V73.1256C132.9 72.8256 132.9 72.3256 132.6 72.0256C132.4 71.7256 132.1 71.6256 131.6 71.6256C131.2 71.6256 130.9 71.7256 130.6 72.0256C130.2 72.5256 130.2 73.1256 130.2 73.6256V76.6256H129.2V70.8256Z" fill="white"/>
<path d="M140.9 75.126C140.7 75.426 140.5 75.826 140.2 76.026C139.7 76.526 139 76.726 138.3 76.726C136.9 76.726 135.4 75.826 135.4 73.726C135.4 72.026 136.5 70.626 138.2 70.626C139.3 70.626 140 71.226 140.4 71.726C140.8 72.226 141 73.126 140.9 73.926H136.4C136.4 75.126 137.2 75.926 138.2 75.926C138.7 75.926 139.1 75.826 139.4 75.526C139.7 75.326 139.9 75.026 140 74.726L140.9 75.126ZM139.9 73.126C139.7 72.226 139 71.626 138.2 71.626C137.4 71.626 136.6 72.226 136.5 73.126H139.9Z" fill="white"/>
<path d="M142.5 70.826H143.5V71.426C143.6 71.226 144 70.626 144.8 70.626C145.1 70.626 145.4 70.726 145.7 70.826L145.2 71.726C145 71.526 144.8 71.526 144.6 71.526C144.2 71.526 143.9 71.726 143.8 71.926C143.6 72.126 143.5 72.526 143.5 73.526V76.626H142.5V70.826Z" fill="white"/>
<path d="M150.8 70.8256H151.8V76.5256C151.8 77.1256 151.8 78.0256 151.2 78.8256C150.8 79.4256 150 79.9256 148.9 79.9256C147.9 79.9256 147.2 79.5256 146.8 79.1256C146.4 78.7256 146 78.1256 146 77.2256H147C147 77.7256 147.2 78.1256 147.4 78.4256C147.8 78.9256 148.4 79.0256 148.8 79.0256C149.5 79.0256 150 78.7256 150.3 78.2256C150.6 77.7256 150.6 77.2256 150.6 76.7256V75.9256C150.3 76.3256 149.6 76.9256 148.6 76.9256C147.7 76.9256 147.1 76.6256 146.6 76.1256C146.2 75.7256 145.8 75.0256 145.8 73.8256C145.8 72.7256 146.2 72.0256 146.6 71.5256C147.1 71.0256 147.8 70.7256 148.6 70.7256C149.5 70.7256 150.1 71.1256 150.6 71.7256V70.8256H150.8ZM147.6 72.1256C147.1 72.6256 147 73.2256 147 73.7256C147 74.2256 147.1 74.9256 147.7 75.4256C148 75.7256 148.4 75.9256 148.9 75.9256C149.4 75.9256 149.9 75.7256 150.2 75.4256C150.6 75.0256 150.9 74.4256 150.9 73.7256C150.9 73.0256 150.6 72.4256 150.3 72.1256C150 71.8256 149.5 71.6256 149 71.6256C148.3 71.6256 147.9 71.8256 147.6 72.1256Z" fill="white"/>
<path d="M155.5 76.1257L152.8 70.8257H153.9L156 75.0257L157.9 70.8257H159L154.7 79.8257H153.7L155.5 76.1257Z" fill="white"/>
<path d="M170.8 69.3259C170.5 69.0259 170.1 68.7259 169.6 68.4259C169.1 68.2259 168.5 68.0259 168 68.0259C165.8 68.0259 164.2 69.7259 164.2 71.9259C164.2 74.4259 166.3 75.7259 168 75.7259C168.6 75.7259 169.2 75.5259 169.7 75.3259C170.2 75.0259 170.6 74.7259 170.8 74.5259V75.8259C169.8 76.5259 168.7 76.7259 168 76.7259C165.2 76.7259 163.2 74.6259 163.2 71.9259C163.2 69.1259 165.3 67.0259 168.1 67.0259C168.7 67.0259 169.7 67.1259 170.9 67.9259V69.3259H170.8Z" fill="white"/>
<path d="M177.6 75.126C177.4 75.426 177.2 75.826 176.9 76.026C176.4 76.526 175.7 76.726 175 76.726C173.6 76.726 172.1 75.826 172.1 73.726C172.1 72.026 173.2 70.626 174.9 70.626C176 70.626 176.7 71.226 177.1 71.726C177.5 72.226 177.7 73.126 177.6 73.926H173.1C173.1 75.126 173.9 75.926 174.9 75.926C175.4 75.926 175.8 75.826 176.1 75.526C176.4 75.326 176.6 75.026 176.7 74.726L177.6 75.126ZM176.6 73.126C176.4 72.226 175.7 71.626 174.9 71.626C174.1 71.626 173.3 72.226 173.2 73.126H176.6Z" fill="white"/>
<path d="M180.2 66.4258V76.6258H179.2V66.4258H180.2Z" fill="white"/>
<path d="M183.1 66.4258V76.6258H182.1V66.4258H183.1Z" fill="white"/>
<path d="M190.8 68.3257V76.7257H189.8V68.3257H187.5V67.3257H193.1V68.3257H190.8Z" fill="white"/>
<path d="M193.2 70.826H194.2V71.426C194.3 71.226 194.7 70.626 195.5 70.626C195.8 70.626 196.1 70.726 196.4 70.826L195.9 71.726C195.7 71.526 195.5 71.526 195.3 71.526C194.9 71.526 194.6 71.726 194.5 71.926C194.3 72.126 194.2 72.526 194.2 73.526V76.626H193.2V70.826Z" fill="white"/>
<path d="M202.2 75.126C202 75.426 201.8 75.826 201.5 76.026C201 76.526 200.3 76.726 199.6 76.726C198.2 76.726 196.7 75.826 196.7 73.726C196.7 72.026 197.8 70.626 199.5 70.626C200.6 70.626 201.3 71.226 201.7 71.726C202.1 72.226 202.3 73.126 202.2 73.926H197.7C197.7 75.126 198.5 75.926 199.5 75.926C200 75.926 200.4 75.826 200.7 75.526C201 75.326 201.2 75.026 201.3 74.726L202.2 75.126ZM201.2 73.126C201 72.226 200.3 71.626 199.5 71.626C198.7 71.626 197.9 72.226 197.8 73.126H201.2Z" fill="white"/>
<path d="M208.2 70.8256H209.2V76.6256H208.2V75.8256C207.9 76.2256 207.2 76.8256 206.2 76.8256C204.7 76.8256 203.4 75.8256 203.4 73.7256C203.4 71.7256 204.7 70.7256 206.2 70.7256C207.3 70.7256 207.9 71.3256 208.2 71.7256V70.8256ZM204.4 73.7256C204.4 74.9256 205.1 75.9256 206.3 75.9256C207.5 75.9256 208.2 74.9256 208.2 73.7256C208.2 72.2256 207.2 71.5256 206.3 71.5256C205.3 71.6256 204.4 72.3256 204.4 73.7256Z" fill="white"/>
<path d="M212.1 71.7256V76.6256H211.1V71.7256H210.5V70.8256H211.1V68.7256H212.1V70.8256H213.1V71.7256H212.1Z" fill="white"/>
<path d="M214.1 70.826H215.1V71.426C215.4 70.926 215.9 70.626 216.5 70.626C217.6 70.626 218 71.326 218.1 71.526C218.7 70.626 219.5 70.626 219.9 70.626C221.6 70.626 221.8 72.026 221.8 72.926V76.626H220.8V73.126C220.8 72.426 220.7 71.626 219.8 71.626C218.6 71.626 218.5 72.726 218.5 73.426V76.626H217.5V73.226C217.5 72.826 217.5 71.626 216.5 71.626C215.4 71.626 215.2 72.826 215.2 73.526V76.726H214.2V70.826H214.1Z" fill="white"/>
<path d="M228.8 75.126C228.6 75.426 228.4 75.826 228.1 76.026C227.6 76.526 226.9 76.726 226.2 76.726C224.8 76.726 223.3 75.826 223.3 73.726C223.3 72.026 224.4 70.626 226.1 70.626C227.2 70.626 227.9 71.226 228.3 71.726C228.7 72.226 228.9 73.126 228.8 73.926H224.3C224.3 75.126 225.1 75.926 226.1 75.926C226.6 75.926 227 75.826 227.3 75.526C227.6 75.326 227.8 75.026 227.9 74.726L228.8 75.126ZM227.8 73.126C227.6 72.226 226.9 71.626 226.1 71.626C225.3 71.626 224.5 72.226 224.4 73.126H227.8Z" fill="white"/>
<path d="M230.4 70.8256H231.4V71.5256C231.6 71.3256 232.1 70.7256 233.1 70.7256C233.8 70.7256 234.4 71.0256 234.8 71.5256C235.1 71.9256 235.1 72.4256 235.1 73.1256V76.7256H234.1V73.1256C234.1 72.8256 234.1 72.3256 233.8 72.0256C233.6 71.7256 233.3 71.6256 232.8 71.6256C232.5 71.6256 232.1 71.7256 231.8 72.0256C231.4 72.5256 231.4 73.1256 231.4 73.6256V76.6256H230.4V70.8256Z" fill="white"/>
<path d="M238 71.7256V76.6256H237V71.7256H236.4V70.8256H237V68.7256H238V70.8256H239V71.7256H238Z" fill="white"/>
<path d="M229.7 51.3255C229.7 50.5255 229.8 49.8255 230.3 49.3255C230.8 48.7255 231.5 48.6255 232 48.6255C233.1 48.6255 234.2 49.3255 234.2 51.1255V51.9255H237.7V52.8255H229.7V51.3255ZM233.4 51.9255V51.2255C233.4 50.1255 232.9 49.5255 231.9 49.5255C230.6 49.5255 230.5 50.7255 230.5 51.3255V52.0255H233.4V51.9255Z" fill="white"/>
<path d="M229.7 46.0256C229.7 45.5256 229.7 44.7256 230.1 44.1256C230.4 43.6256 231 43.2256 231.9 43.2256C233.1 43.2256 234 44.0256 234.1 45.2256L237.7 42.7256V43.8256L234.2 46.2256V46.4256H237.7V47.3256H229.7V46.0256ZM233.4 46.4256V45.8256C233.4 44.7256 232.9 44.0256 231.9 44.0256C231.5 44.0256 231 44.1256 230.7 44.6256C230.5 45.0256 230.5 45.4256 230.5 45.8256V46.3256H233.4V46.4256Z" fill="white"/>
<path d="M233.7 41.7257C231.3 41.7257 229.6 39.8257 229.6 37.5257C229.6 35.2257 231.4 33.3257 233.7 33.3257C236.1 33.3257 237.8 35.1257 237.8 37.5257C237.8 39.9257 236.1 41.7257 233.7 41.7257ZM233.7 40.8257C235.5 40.8257 237 39.3257 237 37.5257C237 35.7257 235.5 34.2257 233.7 34.2257C231.9 34.2257 230.4 35.7257 230.4 37.5257C230.4 39.3257 231.9 40.8257 233.7 40.8257Z" fill="white"/>
</g>
<defs>
<clipPath id="clip0">
<rect width="238.3" height="83.8" fill="white" transform="translate(0.699951 0.8125)"/>
</clipPath>
</defs>
</svg>
