<svg width="21" height="21" viewBox="0 0 21 21" fill="none" xmlns="http://www.w3.org/2000/svg">
<path d="M20.1075 2.39125C19.5379 1.378 18.9197 1.19163 17.661 1.12075C16.4036 1.03544 13.2418 1 10.5026 1C7.75819 1 4.59506 1.03544 3.339 1.11944C2.08294 1.19163 1.46344 1.37669 0.888563 2.39125C0.301875 3.40319 0 5.14619 0 8.21481C0 8.21744 0 8.21875 0 8.21875C0 8.22137 0 8.22269 0 8.22269V8.22531C0 11.2808 0.301875 13.0369 0.888563 14.0384C1.46344 15.0516 2.08162 15.2354 3.33769 15.3207C4.59506 15.3942 7.75819 15.4375 10.5026 15.4375C13.2418 15.4375 16.4036 15.3942 17.6623 15.322C18.921 15.2367 19.5392 15.0529 20.1088 14.0397C20.7008 13.0383 21 11.2821 21 8.22662C21 8.22662 21 8.22269 21 8.22006C21 8.22006 21 8.21744 21 8.21613C21 5.14619 20.7008 3.40319 20.1075 2.39125ZM7.875 12.1562V4.28125L14.4375 8.21875L7.875 12.1562Z" fill="white"/>
</svg>
