<svg width="129" height="115" viewBox="0 0 129 115" fill="none" xmlns="http://www.w3.org/2000/svg"><path d="M1.5 3a1.5 1.5 0 1 0 0-3 1.5 1.5 0 0 0 0 3zm42 0a1.5 1.5 0 1 0 0-3 1.5 1.5 0 0 0 0 3zm42 0a1.5 1.5 0 1 0 0-3 1.5 1.5 0 0 0 0 3zm42 0a1.5 1.5 0 1 0 0-3 1.5 1.5 0 0 0 0 3zM1.5 31a1.5 1.5 0 1 0 0-3 1.5 1.5 0 0 0 0 3zm42 0a1.5 1.5 0 1 0 0-3 1.5 1.5 0 0 0 0 3zm42 0a1.5 1.5 0 1 0 0-3 1.5 1.5 0 0 0 0 3zm42 0a1.5 1.5 0 1 0 0-3 1.5 1.5 0 0 0 0 3zM1.5 59a1.5 1.5 0 1 0 0-3 1.5 1.5 0 0 0 0 3zm42 0a1.5 1.5 0 1 0 0-3 1.5 1.5 0 0 0 0 3zm42 0a1.5 1.5 0 1 0 0-3 1.5 1.5 0 0 0 0 3zm42 0a1.5 1.5 0 1 0 0-3 1.5 1.5 0 0 0 0 3zM1.5 87a1.5 1.5 0 1 0 0-3 1.5 1.5 0 0 0 0 3zm42 0a1.5 1.5 0 1 0 0-3 1.5 1.5 0 0 0 0 3zm42 0a1.5 1.5 0 1 0 0-3 1.5 1.5 0 0 0 0 3zm42 0a1.5 1.5 0 1 0 0-3 1.5 1.5 0 0 0 0 3zm-126 28a1.5 1.5 0 1 0 0-3 1.5 1.5 0 0 0 0 3zm42 0a1.5 1.5 0 1 0 0-3 1.5 1.5 0 0 0 0 3zm42 0a1.5 1.5 0 1 0 0-3 1.5 1.5 0 0 0 0 3zm42 0a1.5 1.5 0 1 0-.001-3.001A1.5 1.5 0 0 0 127.5 115z" fill="#1F1F1F"/></svg>