<svg width="46" height="46" viewBox="0 0 46 46" fill="none" xmlns="http://www.w3.org/2000/svg"><circle cx="23" cy="23" r="22.25" fill="#fff" stroke="#fff" stroke-width="1.5"/><circle cx="23" cy="23" r="19.5" fill="#0376C4" stroke="#0376C4"/><path d="M33.854 22.053c-.206-.281-5.101-6.883-11.354-6.883-6.253 0-11.149 6.602-11.354 6.882a.759.759 0 0 0 0 .895c.205.282 5.101 6.883 11.354 6.883 6.253 0 11.148-6.602 11.354-6.882a.758.758 0 0 0 0-.895zM22.5 28.313c-4.606 0-8.595-4.381-9.776-5.813 1.18-1.434 5.16-5.813 9.776-5.813 4.605 0 8.594 4.38 9.776 5.813-1.18 1.434-5.16 5.813-9.776 5.813z" fill="#fff"/><path d="M22.5 17.95a4.555 4.555 0 0 0-4.55 4.55 4.555 4.555 0 0 0 4.55 4.55 4.556 4.556 0 0 0 4.55-4.55 4.555 4.555 0 0 0-4.55-4.55zm0 7.583a3.036 3.036 0 0 1-3.033-3.033 3.036 3.036 0 0 1 3.033-3.033 3.036 3.036 0 0 1 3.033 3.033 3.036 3.036 0 0 1-3.033 3.033z" fill="#fff"/></svg>