<svg width="21" height="21" viewBox="0 0 21 21" fill="none" xmlns="http://www.w3.org/2000/svg"><path d="M20.108 2.391c-.57-1.013-1.188-1.2-2.447-1.27C16.404 1.035 13.241 1 10.503 1c-2.745 0-5.908.035-7.164.12-1.256.072-1.876.257-2.45 1.271C.302 3.403 0 5.146 0 8.215v.01c0 3.056.302 4.812.889 5.813.574 1.014 1.193 1.197 2.449 1.283 1.257.073 4.42.117 7.165.117 2.739 0 5.9-.044 7.16-.116 1.258-.085 1.876-.27 2.446-1.282.592-1.002.891-2.758.891-5.813v-.011c0-3.07-.3-4.813-.892-5.825zM7.875 12.156V4.281l6.563 3.938-6.563 3.937z" fill="#fff"/></svg>